<?xml version="1.0" encoding="utf-8"?>
<!-- Svg Vector Icons : http://www.onlinewebfonts.com/icon -->
<!DOCTYPE svg PUBLIC "-//W3C//DTD SVG 1.1//EN" "http://www.w3.org/Graphics/SVG/1.1/DTD/svg11.dtd">
<svg version="1.1" xmlns="http://www.w3.org/2000/svg" xmlns:xlink="http://www.w3.org/1999/xlink" x="0px" y="0px" viewBox="0 0 256 256" enable-background="new 0 0 256 256" xml:space="preserve">
<metadata> Svg Vector Icons : http://www.onlinewebfonts.com/icon </metadata>
<g><g><g><path fill="#000000" d="M120.1,22.6v12.6h-34h-34v16.9V69h4.2h4.2v80.1v80.1h-4.2h-4.2v8.4v8.4H128h75.9v-8.4v-8.4h-4.2h-4.2v-80.1V69h4.2h4.2V52.1V35.3h-33.7h-33.7V22.6V10h-8.2h-8.2L120.1,22.6L120.1,22.6z M88,46.8c0.7,0.5,1.7,1.8,2.3,3c0.8,1.7,0.9,2.3,0.4,4c-1.9,6.4-11,6.4-12.7,0C76.4,47.9,83.1,43.2,88,46.8z M114.8,45.9c1.1,0.4,1.6,0.9,1.6,1.6c0,0.8-0.2,0.9-0.9,0.7c-4-1.7-7.3,0.1-7.3,4s3.3,5.7,7.3,4c0.6-0.3,0.9-0.2,0.9,0.4c0,1.4-1.3,2-3.8,2c-2.2,0-2.8-0.3-4.4-1.8c-1.6-1.6-1.8-2.1-1.8-4.4c0-3.8,2.3-6.3,6.4-6.9C112.9,45.3,113.8,45.6,114.8,45.9z M169.2,45.8c2.9,0.8,4.6,3.2,4.6,6.4c0,2.4-0.2,2.8-1.9,4.4c-1.6,1.5-2.2,1.8-4.5,1.8c-2.2,0-2.9-0.3-4.4-1.7c-3.6-3.2-2.8-8.2,1.5-10.3C167.1,45.1,166.7,45.1,169.2,45.8z M74.8,46.9c0.6,0.6,1.1,1.7,1.1,2.6c0,0.9-0.5,2.1-1.1,2.6c-0.6,0.6-1.7,1.1-2.6,1.1c-1.5,0-1.6,0.1-1.6,2.6c0,2-0.2,2.6-0.8,2.6c-0.6,0-0.8-1.1-0.8-6.3v-6.3h2.4C73.1,45.8,74.1,46.1,74.8,46.9z M95.4,51.2l0.2,5.4l2,0.2c1.3,0.1,1.9,0.4,1.9,0.9s-0.7,0.7-2.9,0.7h-2.9v-6.3c0-5.2,0.2-6.3,0.8-6.3C95.1,45.8,95.3,46.9,95.4,51.2z M103.2,52.1c0,5.3-0.1,6.3-0.8,6.3c-0.6,0-0.8-1.1-0.8-6.3c0-5.3,0.2-6.3,0.8-6.3C103.1,45.8,103.2,46.9,103.2,52.1z M125.9,46.6c0,0.6-0.7,0.8-2.5,0.9c-2.3,0.2-2.5,0.3-2.7,1.6c-0.2,1.4-0.1,1.5,2.5,1.5c2,0,2.7,0.2,2.7,0.7c0,0.6-0.7,0.8-2.5,0.9l-2.5,0.2v2.1v2.1l2.5,0.2c1.7,0.1,2.5,0.4,2.5,0.9s-0.8,0.7-3.4,0.7H119v-6.3v-6.3h3.4C125.1,45.8,125.9,46,125.9,46.6z M155.4,46.9c0.9,0.9,1.1,1.5,0.8,3c-0.2,1.3-0.1,2.1,0.4,2.6c1.1,1.1,0.9,3.7-0.3,4.9c-0.8,0.8-1.7,1.1-3.7,1.1h-2.6v-6.3v-6.3h2.1C153.7,45.8,154.7,46.2,155.4,46.9z M179.8,47.7c0.5,1,1.1,1.8,1.3,1.8c0.3,0,0.9-0.8,1.5-1.8c0.7-1.3,1.4-1.8,2.2-1.8c1.2,0,1.2,0.1-0.6,3l-1.8,3l1.8,3.3c1.7,3.1,1.8,3.3,0.8,3.3c-0.7,0-1.5-0.8-2.5-2.4l-1.5-2.5l-1.4,2.5c-0.8,1.4-1.7,2.4-2.3,2.4c-1.3,0-1.2-0.4,0.9-3.7l1.8-2.9l-1.6-2.7c-1.8-3.2-1.8-3.4-0.6-3.4C178.5,45.8,179.3,46.6,179.8,47.7z M94.3,90.1v12.6h-8.4h-8.4V90.1V77.4h8.4h8.4V90.1z M119.6,90.1v12.6h-8.4h-8.4V90.1V77.4h8.4h8.4V90.1z M153.3,90.1v12.6h-8.4h-8.4V90.1V77.4h8.4h8.4V90.1z M178.6,90.1v12.6h-8.4h-8.4V90.1V77.4h8.4h8.4V90.1z M94.3,123.8v12.6h-8.4h-8.4v-12.6v-12.6h8.4h8.4V123.8z M119.6,123.8v12.6h-8.4h-8.4v-12.6v-12.6h8.4h8.4V123.8z M153.3,123.8v12.6h-8.4h-8.4v-12.6v-12.6h8.4h8.4V123.8z M178.6,123.8v12.6h-8.4h-8.4v-12.6v-12.6h8.4h8.4V123.8z M119.6,170.1V187H98.5H77.4v-16.9v-16.9h21.1h21.1V170.1z"/><path fill="#000000" d="M81.1,48.9C80,50,79.5,51,79.5,52.1c0,2.3,2.5,4.7,4.7,4.7c1.2,0,2.2-0.5,3.2-1.5c1.9-1.9,2-4.2,0.2-6.3C85.8,46.8,83.2,46.8,81.1,48.9z"/><path fill="#000000" d="M164.1,48.8c-1.9,1.9-1.8,4.5,0.2,6.6c1.9,1.9,4.2,2,6.2,0.3c3.2-2.8,1.1-8.2-3.2-8.2C166.1,47.4,165.1,47.9,164.1,48.8z"/><path fill="#000000" d="M70.6,49.5c0,1.7,0.2,2.1,1,2.1c1.1,0,2.7-1.3,2.7-2.1s-1.6-2.1-2.7-2.1C70.7,47.4,70.6,47.8,70.6,49.5z"/><path fill="#000000" d="M152.2,49.2c0,1.5,0.2,1.8,1,1.8c1.3,0,1.9-1.9,1.1-2.9C153.2,46.8,152.2,47.3,152.2,49.2z"/><path fill="#000000" d="M152.2,54.8c0,2.1,0.1,2.2,1.4,1.8c2.4-0.6,3.1-2.4,1.3-3.4C152.9,52.1,152.2,52.5,152.2,54.8z"/></g></g></g>
</svg>